<?xml version="1.0" encoding="UTF-8" standalone="no"?>
<!DOCTYPE svg PUBLIC "-//W3C//DTD SVG 20010904//EN"
              "http://www.w3.org/TR/2001/REC-SVG-20010904/DTD/svg10.dtd">

<svg xmlns="http://www.w3.org/2000/svg"
     width="6.05556in" height="3.11111in"
     viewBox="0 0 436 224">
  <path fill="#000000"
        d="M 89.00,80.67
           C 85.48,82.54 80.02,83.43 77.85,86.28
             76.25,88.37 75.08,94.22 74.29,97.00
             74.29,97.00 67.33,121.00 67.33,121.00
             59.93,143.68 50.46,164.74 39.75,186.00
             34.58,196.28 26.48,209.18 18.00,216.90
             14.75,219.85 8.74,224.11 4.11,223.77
             -0.13,223.47 -0.39,219.07 1.74,216.70
             3.82,214.38 8.02,214.32 14.00,208.90
             22.26,201.41 28.75,189.94 33.75,180.00
             45.13,157.41 54.42,134.23 61.72,110.00
             63.22,105.01 68.95,89.41 68.85,85.28
             68.73,80.65 63.44,79.82 61.29,70.00
             57.72,53.73 58.55,25.20 65.52,10.00
             67.50,5.66 73.95,-2.58 79.36,1.78
             82.47,4.28 83.63,11.23 84.16,15.00
             86.00,25.73 85.07,38.21 84.16,49.00
             83.42,56.05 82.68,65.58 80.00,72.00
             80.00,72.00 81.00,73.00 81.00,73.00
             93.95,65.19 94.50,63.64 103.58,52.05
             105.54,49.54 109.12,45.64 112.78,47.23
             116.73,48.96 115.60,55.25 116.63,59.00
             116.63,59.00 119.76,68.00 119.76,68.00
             121.58,75.43 123.11,89.59 129.19,94.49
             134.26,98.58 139.74,95.80 145.00,93.81
             151.45,91.37 160.11,89.08 167.00,89.00
             167.00,89.00 202.00,91.00 202.00,91.00
             226.34,90.96 267.88,78.84 294.00,73.80
             318.21,69.13 347.46,64.96 372.00,65.00
             381.38,65.02 378.10,65.84 383.09,66.87
             383.09,66.87 392.00,66.87 392.00,66.87
             392.00,66.87 417.91,70.70 417.91,70.70
             417.91,70.70 431.00,76.00 431.00,76.00
             431.00,76.00 414.00,75.00 414.00,75.00
             414.00,75.00 398.00,74.00 398.00,74.00
             398.00,74.00 382.00,74.00 382.00,74.00
             382.00,74.00 370.00,75.04 370.00,75.04
             370.00,75.04 360.00,75.04 360.00,75.04
             360.00,75.04 315.00,81.08 315.00,81.08
             315.00,81.08 258.00,93.37 258.00,93.37
             243.87,96.91 223.37,101.98 209.00,102.00
             209.00,102.00 191.00,102.00 191.00,102.00
             191.00,102.00 168.00,100.00 168.00,100.00
             152.49,100.65 129.90,117.61 118.13,100.00
             115.94,96.68 114.29,90.87 113.00,87.00
             113.00,87.00 108.28,97.00 108.28,97.00
             107.05,99.86 105.00,105.55 102.61,107.39
             98.99,110.18 94.14,107.27 94.31,102.00
             94.41,99.18 96.92,93.94 97.92,91.00
             99.48,86.47 102.33,74.75 103.00,70.00
             98.09,73.51 94.43,77.80 89.00,80.67 Z
           M 68.58,57.00
           C 69.27,62.22 68.18,67.75 73.00,71.00
             73.00,71.00 78.00,30.00 78.00,30.00
             78.05,24.94 78.07,18.15 75.00,14.00
             69.32,23.27 67.15,46.19 68.58,57.00 Z
           M 377.00,66.00
           C 377.00,66.00 378.00,67.00 378.00,67.00
             378.00,67.00 378.00,66.00 378.00,66.00
             378.00,66.00 377.00,66.00 377.00,66.00 Z
           M 332.00,70.00
           C 332.00,70.00 333.00,71.00 333.00,71.00
             333.00,71.00 333.00,70.00 333.00,70.00
             333.00,70.00 332.00,70.00 332.00,70.00 Z
           M 324.00,71.00
           C 324.00,71.00 325.00,72.00 325.00,72.00
             325.00,72.00 325.00,71.00 325.00,71.00
             325.00,71.00 324.00,71.00 324.00,71.00 Z
           M 291.00,77.00
           C 291.00,77.00 296.00,76.00 296.00,76.00
             296.00,76.00 291.00,77.00 291.00,77.00 Z
           M 330.00,76.00
           C 330.00,76.00 331.00,77.00 331.00,77.00
             331.00,77.00 331.00,76.00 331.00,76.00
             331.00,76.00 330.00,76.00 330.00,76.00 Z" />
</svg>
